<svg fill="none" height="688" viewBox="0 0 335 688" width="335" xmlns="http://www.w3.org/2000/svg" xmlns:xlink="http://www.w3.org/1999/xlink"><linearGradient id="a" gradientUnits="userSpaceOnUse" x1="118.772" x2="68.0548" y1="332.005" y2="254.942"><stop offset="0" stop-color="#66a6ff"/><stop offset="1" stop-color="#89f7fe"/></linearGradient><mask id="b" height="656" maskUnits="userSpaceOnUse" width="303" x="16" y="16"><path clip-rule="evenodd" d="m49.936 16c-18.7423 0-33.936 15.1914-33.936 33.931v588.138c0 18.74 15.1937 33.931 33.936 33.931h235.128c18.742 0 33.936-15.191 33.936-33.931v-588.138c0-18.7396-15.194-33.931-33.936-33.931h-50.972c-3.164 0-3.972 2.0169-3.972 5.1358 0 9.8798-2.424 19.5046-17.083 19.5046h-91.073c-14.66 0-17.084-9.6248-17.084-19.5046 0-3.1189-.808-5.1358-3.972-5.1358z" fill="#fff" fill-rule="evenodd"/></mask><path d="m0 0h335v688h-335z" fill="#f5f5f5" fill-opacity=".8"/><path d="m0 0h335v688h-335z" fill="#f5f5f5" fill-opacity=".8" opacity=".5"/><circle cx="124" cy="25" fill="#dfdfdf" r="4"/><path d="m139 6h57v3c0 1.6569-1.343 3-3 3h-51c-1.657 0-3-1.3431-3-3z" fill="#dfdfdf"/><g mask="url(#b)"><rect fill="#fff" height="656" rx="4" width="303" x="16" y="16"/><g clip-rule="evenodd" fill-rule="evenodd"><path d="m173.441 549.246 53.062-.003.001 7.58-53.062.003z" fill="#111213" fill-opacity=".1"/><path d="m173.44 534.086 106.124-.007.001 7.581-106.124.006z" fill="#111213" fill-opacity=".1"/><path d="m173.439 518.926 106.124-.007.001 7.581-106.124.006z" fill="#111213" fill-opacity=".1"/><path d="m173.438 503.766 75.803-.005.001 7.58-75.803.005z" fill="#111213" fill-opacity=".1"/><path d="m52.1538 503.613c-.0006-8.284 6.7148-15 14.999-15.001l60.9632-.003c8.284-.001 15.001 6.714 15.001 14.999l.004 60.963c0 8.284-6.715 15.001-14.999 15.001l-60.9636.004c-8.2843 0-15.0004-6.715-15.0009-14.999z" fill="#111213" fill-opacity=".1"/><path d="m173.434 427.965 53.062-.003.001 7.58-53.062.003z" fill="#111213" fill-opacity=".1"/><path d="m173.433 412.805 106.124-.007.001 7.58-106.124.007z" fill="#111213" fill-opacity=".1"/><path d="m173.432 397.645 106.124-.007.001 7.58-106.124.007z" fill="#111213" fill-opacity=".1"/><path d="m173.431 382.484 75.803-.004v7.58l-75.803.005z" fill="#111213" fill-opacity=".1"/><path d="m52.1464 382.332c-.0005-8.284 6.7148-15 14.9991-15.001l60.9635-.004c8.284 0 15 6.715 15.001 14.999l.004 60.964c0 8.284-6.715 15-15 15.001l-60.9629.004c-8.2843 0-15.0004-6.715-15.0009-15z" fill="#111213" fill-opacity=".1"/><path d="m173.427 306.676 53.061-.003.001 7.58-53.062.003z" fill="#111213" fill-opacity=".1"/><path d="m173.426 291.516 106.124-.007v7.58l-106.124.007z" fill="#111213" fill-opacity=".1"/><path d="m173.425 276.355 106.124-.006v7.58l-106.124.007z" fill="#111213" fill-opacity=".1"/><path d="m173.424 261.195 75.803-.004v7.58l-75.803.005z" fill="#111213" fill-opacity=".1"/><path d="m52.1393 261.043c-.0005-8.284 6.7149-15 14.9991-15.001l60.9636-.004c8.284 0 15 6.715 15.001 14.999l.003 60.964c.001 8.284-6.714 15-14.999 15.001l-60.963.003c-8.2843.001-15.0004-6.714-15.0009-14.999z" fill="url(#a)"/><path d="m173.419 185.391 53.062-.004.001 7.581-53.062.003z" fill="#111213" fill-opacity=".1"/><path d="m173.418 170.23 106.124-.006.001 7.58-106.124.007z" fill="#111213" fill-opacity=".1"/><path d="m173.417 155.07 106.124-.006.001 7.58-106.124.007z" fill="#111213" fill-opacity=".1"/><path d="m173.416 139.91 75.803-.004.001 7.58-75.803.004z" fill="#111213" fill-opacity=".1"/><path d="m52.1318 139.758c-.0005-8.284 6.7148-15.001 14.9991-15.001l60.9631-.004c8.285 0 15.001 6.715 15.001 14.999l.004 60.964c0 8.284-6.715 15-14.999 15.001l-60.9636.003c-8.2842.001-15.0004-6.715-15.0009-14.999z" fill="#111213" fill-opacity=".1"/></g></g></svg>