<svg fill="none" height="688" viewBox="0 0 335 688" width="335" xmlns="http://www.w3.org/2000/svg" xmlns:xlink="http://www.w3.org/1999/xlink"><linearGradient id="a" gradientUnits="userSpaceOnUse" x1="92.6849" x2="242.934" y1="214.464" y2="358.927"><stop offset="0" stop-color="#38d7cd"/><stop offset="1" stop-color="#29fb96"/></linearGradient><mask id="b" height="656" maskUnits="userSpaceOnUse" width="303" x="16" y="16"><path clip-rule="evenodd" d="m49.936 16c-18.7423 0-33.936 15.1914-33.936 33.931v588.138c0 18.74 15.1937 33.931 33.936 33.931h235.128c18.742 0 33.936-15.191 33.936-33.931v-588.138c0-18.7396-15.194-33.931-33.936-33.931h-50.972c-3.164 0-3.972 2.0169-3.972 5.1358 0 9.8798-2.424 19.5046-17.083 19.5046h-91.073c-14.66 0-17.084-9.6248-17.084-19.5046 0-3.1189-.808-5.1358-3.972-5.1358z" fill="#fff" fill-rule="evenodd"/></mask><path d="m0 0h335v688h-335z" fill="#f5f5f5" fill-opacity=".8"/><path d="m0 0h335v688h-335z" fill="#f5f5f5" fill-opacity=".8" opacity=".5"/><circle cx="124" cy="25" fill="#dfdfdf" r="4"/><path d="m139 6h57v3c0 1.6569-1.343 3-3 3h-51c-1.657 0-3-1.3431-3-3z" fill="#dfdfdf"/><g mask="url(#b)"><rect fill="#fff" height="656" rx="4" width="303" x="16" y="16"/><g clip-rule="evenodd" fill-rule="evenodd"><path d="m56.3337 556.254 161.4663.006v7.34l-161.4666-.007z" fill="#111213" fill-opacity=".1"/><path d="m56.3345 541.574 220.1815.009v7.339l-220.1818-.008z" fill="#111213" fill-opacity=".1"/><path d="m56.3352 526.898 220.1818.009-.001 7.34-220.1811-.009z" fill="#111213" fill-opacity=".1"/><path d="m56.3359 512.219 220.1811.009v7.339l-220.1814-.009z" fill="#111213" fill-opacity=".1"/><path d="m56.3367 497.539 220.1813.009v7.339l-220.1816-.009z" fill="#111213" fill-opacity=".1"/><path d="m56.3367 482.859 220.1813.009v7.34l-220.1816-.009z" fill="#111213" fill-opacity=".1"/><path d="m56.3372 468.18 220.1818.008-.001 7.34-220.1811-.009z" fill="#111213" fill-opacity=".1"/><path d="m56.3381 453.504 220.1809.009v7.339l-220.1812-.009z" fill="#111213" fill-opacity=".1"/><path d="m56.3386 438.824 220.1814.009v7.339l-220.1817-.008z" fill="#111213" fill-opacity=".1"/><path d="m56.3394 405.794c.0002-6.08 4.9294-11.009 11.0095-11.008l198.1631.007c6.08.001 11.009 4.93 11.009 11.01 0 6.08-4.93 11.009-11.01 11.009l-198.163-.008c-6.0801-.001-11.0088-4.93-11.0086-11.01z" fill="#111213" fill-opacity=".1"/><path d="m56.3411 365.43 102.7509.004v7.339l-102.7512-.004z" fill="#111213" fill-opacity=".1"/><path d="m56.3456 255.66c.0003-8.284 6.7163-15 15.0006-14.999l190.1818.007c8.284.001 14.999 6.717 14.999 15.001l-.003 72.751c0 8.284-6.716 15-15.001 15l-190.1809-.008c-8.2843 0-14.9997-6.716-14.9994-15.001z" fill="url(#a)"/><path d="m173.78 138.237c0-8.284 6.716-15 15.001-14.999l72.751.003c8.284 0 15 6.716 14.999 15l-.003 72.752c0 8.284-6.716 14.999-15 14.999l-72.751-.003c-8.285 0-15-6.716-15-15.001z" fill="#111213" fill-opacity=".1"/><path d="m56.3502 138.23c.0003-8.284 6.7163-14.999 15.0006-14.999l72.7512.003c8.284 0 15 6.716 15 15.001l-.003 72.751c-.001 8.284-6.717 15-15.001 14.999l-72.7513-.003c-8.2842 0-14.9997-6.716-14.9994-15z" fill="#111213" fill-opacity=".1"/></g></g></svg>