<svg fill="none" height="16" viewBox="0 0 16 16" width="16" xmlns="http://www.w3.org/2000/svg"><path d="m10.3907 7.10089-2.63335-2.63334-.00667-.00666c-.26-.26667-.25333-.69334.01334-.94667.25333-.25333.66666-.25333.92 0l3.77128 3.76667c.26.25333.26.67333 0 .93333-.0066 0-.0066 0-.0066 0l-3.77335 3.76668v-.0067c-.26.26-.68.2667-.94667.0134-.26666-.26-.27333-.68-.02-.9467 0-.0067.00667-.0133.01334-.02l2.63328-2.63335h-6.39528-.00667c-.37333-.00666-.66667-.3-.66667-.67333s.29334-.66667.66667-.66667h6.39065z" fill="#111213"/></svg>