<svg fill="none" height="24" viewBox="0 0 24 24" width="24" xmlns="http://www.w3.org/2000/svg"><path d="m13 11.6404 1.12-1.12h-.01c.39-.39 1.03-.38 1.41.02.37.38.37 1 0 1.38l-2.83 2.82h-.01c-.39.39-1.02.39-1.41 0-.01-.01-.01-.01-.01-.01l-2.83002-2.83c-.4-.4-.4-1.03 0-1.42.39-.4 1.02-.4 1.41 0l1.12002 1.12v-5.64102c-.01-.56.44-1.01.99-1.01.55-.01 1 .44 1 .99v5.64002zm-7.00002 5.359h12.00002-.01c.55-.01 1 .44 1 .99s-.45 1-1 1h-12.00002l-.01-.001c-.56-.01-1-.45-1-1.01s.44-1 1-1z" fill="#111213"/></svg>