<svg width="36" height="36" viewBox="0 0 36 36" fill="none" xmlns="http://www.w3.org/2000/svg">
<path d="M6.96005 7.22984L17.9851 3.08984L29.0101 7.21484L28.9951 7.19984C29.5801 7.40984 29.9551 7.96484 29.9551 8.59484V15.0448C29.9551 19.7998 27.8851 24.3448 24.3001 27.4798L17.9401 33.0298L11.5846 27.4648C7.98455 24.3148 5.92955 19.7848 5.92955 15.0148V8.54984H5.91455C5.91455 7.91984 6.28955 7.36484 6.87455 7.13984L6.96005 7.22984ZM16.3951 18.4948L14.2651 16.3648C13.6801 15.7648 12.7351 15.7498 12.1351 16.3198C11.5351 16.8898 11.5201 17.8348 12.0901 18.4348C12.0901 18.4348 12.1051 18.4498 12.1201 18.4648L15.3001 21.6448L15.2851 21.6298C15.8701 22.2148 16.8151 22.2148 17.4001 21.6298L23.7646 15.2653V15.2503C24.3496 14.6653 24.3646 13.7203 23.7946 13.1203C23.2096 12.5203 22.2646 12.5053 21.6646 13.0753C21.6496 13.0753 21.6346 13.0903 21.6196 13.1053L16.3096 18.4003L16.3951 18.4948Z" fill="url(#paint0_linear_529_7269)"/>
<defs>
<linearGradient id="paint0_linear_529_7269" x1="23.5235" y1="31.3851" x2="5.70298" y2="9.63992" gradientUnits="userSpaceOnUse">
<stop stop-color="#66A6FF"/>
<stop offset="1" stop-color="#89F7FE"/>
</linearGradient>
</defs>
</svg>
