<svg width="36" height="36" viewBox="0 0 36 36" fill="none" xmlns="http://www.w3.org/2000/svg">
<path d="M22.5001 8.99825H15.0001H14.9851C13.3201 8.99825 11.9851 10.3332 11.9851 11.9982V25.4982H7.48509L7.47009 25.4967C5.80509 25.4817 4.47009 24.1467 4.47009 22.4818V5.98175C4.45509 4.30325 5.80509 2.95325 7.45509 2.95325H19.4551H19.4401C21.0901 2.93825 22.4401 4.28825 22.4401 5.93825V8.93825L22.5001 8.99825ZM16.5001 10.4982H27.0001L31.5001 14.9982V29.9982C31.5001 31.6482 30.1501 32.9982 28.5001 32.9982H16.5001L16.4851 32.9967C14.8201 32.9818 13.4851 31.6467 13.4851 29.9818V13.4817C13.4701 11.8167 14.8201 10.4667 16.4701 10.4667L16.5001 10.4982Z" fill="url(#paint0_linear_529_7273)"/>
<defs>
<linearGradient id="paint0_linear_529_7273" x1="12.3444" y1="2.95312" x2="33.4623" y2="18.4832" gradientUnits="userSpaceOnUse">
<stop stop-color="#FF7A22"/>
<stop offset="1" stop-color="#FF4AB9"/>
</linearGradient>
</defs>
</svg>
