<svg width="36" height="36" viewBox="0 0 36 36" fill="none" xmlns="http://www.w3.org/2000/svg">
<path d="M25.6846 18.9315C25.6396 15.1215 28.7746 13.3095 28.9096 13.2195C27.1396 10.6395 24.3946 10.287 23.4241 10.2345C21.0841 9.99447 18.8641 11.5995 17.6791 11.5995C16.4941 11.5995 14.6671 10.2495 12.7291 10.2945C10.1791 10.3245 7.83761 11.7645 6.52661 14.0445C3.87161 18.6345 5.83661 25.4295 8.41661 29.1495C9.67661 30.9645 11.1766 33.0195 13.1521 32.9445C15.0511 32.8695 15.7696 31.7145 18.0571 31.7145C20.3521 31.7145 20.9971 32.9445 23.0071 32.8995C25.0471 32.8545 26.3371 31.0395 27.5971 29.2095C29.0371 27.0945 29.6401 25.0395 29.6671 24.9345C29.6221 24.9045 25.6771 23.4045 25.6321 18.867L25.6846 18.9315ZM21.9046 7.77147C22.9396 6.50097 23.6446 4.73847 23.4646 2.98047C21.9496 3.04047 20.1286 3.98547 19.0396 5.24547C18.0646 6.37047 17.2096 8.15547 17.4346 9.88047C19.1146 10.0005 20.8246 9.02547 21.8746 7.75797L21.9046 7.77147Z" fill="url(#paint0_linear_529_7275)"/>
<defs>
<linearGradient id="paint0_linear_529_7275" x1="13.2298" y1="2.98047" x2="34.4227" y2="15.0825" gradientUnits="userSpaceOnUse">
<stop stop-color="#38D7CD"/>
<stop offset="1" stop-color="#29FB96"/>
</linearGradient>
</defs>
</svg>
