<svg width="36" height="36" viewBox="0 0 36 36" fill="none" xmlns="http://www.w3.org/2000/svg">
<path d="M12 2.99875H24H23.985C28.95 2.98375 32.985 7.01875 32.985 11.9987V23.9988C32.985 28.9638 28.95 32.9988 23.985 32.9988H11.985L11.97 32.9973C6.99001 32.9823 2.97001 28.9622 2.97001 23.9972V23.9958V11.9958C2.95501 7.00375 6.99001 2.96875 11.955 2.96875L12 2.99875ZM21 16.4988H20.985C20.145 16.4988 19.485 17.1588 19.485 17.9988C19.485 18.8238 20.145 19.4988 20.985 19.4837H25.485L25.47 19.4823C26.295 19.4823 26.97 18.8073 26.97 17.9823C26.97 17.1423 26.295 16.4823 25.47 16.4673H20.97L21 16.4988ZM18 22.4988H17.985C17.145 22.4988 16.485 23.1588 16.485 23.9988C16.485 24.8238 17.145 25.4988 17.985 25.4837H25.485L25.47 25.4823C26.295 25.4823 26.97 24.8073 26.97 23.9823C26.97 23.1423 26.295 22.4823 25.47 22.4673H17.97L18 22.4988ZM18 10.4987H17.985C17.145 10.4987 16.485 11.1587 16.485 11.9987C16.485 12.8237 17.145 13.4987 17.985 13.4837H25.485L25.47 13.4823C26.295 13.4823 26.97 12.8073 26.97 11.9823C26.97 11.1423 26.295 10.4823 25.47 10.4672H17.97L18 10.4987ZM11.742 18.3633L10.677 17.2983C10.092 16.6983 9.14701 16.6833 8.54701 17.2533C7.94701 17.8233 7.93201 18.7683 8.50201 19.3683C8.50201 19.3683 8.51701 19.3832 8.53201 19.3983L10.647 21.5133C11.232 22.0983 12.177 22.0983 12.762 21.5133C12.762 21.4983 12.762 21.4983 12.762 21.4983L16.98 17.2488V17.2338C17.565 16.6337 17.565 15.6888 16.98 15.1038C16.38 14.5037 15.435 14.5038 14.85 15.0888L11.655 18.2688L11.742 18.3633Z" fill="url(#paint0_linear_529_7271)"/>
<defs>
<linearGradient id="paint0_linear_529_7271" x1="10.1782" y1="5.2294" x2="26.9776" y2="29.0936" gradientUnits="userSpaceOnUse">
<stop stop-color="#F6D365"/>
<stop offset="1" stop-color="#FF7952"/>
</linearGradient>
</defs>
</svg>
