<svg fill="none" height="20" viewBox="0 0 20 20" width="20" xmlns="http://www.w3.org/2000/svg"><path d="m17.143 4.2347-6.5833 5.8583h-.0083c-.3167.275-.80003.275-1.1167-.0083l-6.61-5.86666h-.00833c.15-.05.31666-.075.48333-.075h13.3333v-.00084c.1584-.00833.3167.01667.475.06667zm1.125 1.15c.0334.14167.0584.28334.0584.44334v8.33336c0 .9166-.75 1.6666-1.6667 1.6666h-13.33333l-.00834-.0008c-.925-.0083-1.66666-.75-1.66666-1.675v-8.33333c0-.15833.01666-.30833.05833-.45l6.615 5.94913-.00833-.0083c.94166.8417 2.37503.8417 3.32503 0l6.6-5.955z" fill="#111213"/></svg>