<svg fill="none" height="20" viewBox="0 0 20 20" width="20" xmlns="http://www.w3.org/2000/svg"><g fill="#111213"><path d="m7.88288 3.61016c1.06666-1.18334 2.73332-1.95 4.61662-1.95 3.2167 0 5.8334 2.23833 5.8334 5 0 1.65-.9417 3.125-2.3917 4.03334v-.0083c-.0417.0166-.075.0416-.1167.0583v3.375-.0083c0 .4583-.375.8333-.8333.8333-.2333 0-.4417-.0917-.6-.2583l-.95-.9834c.8833-1.0583 1.4083-2.35 1.4083-3.74414 0-3.39167-3.0833-6.1625-6.98329-6.39167z"/><path d="m8.64991 14.9071-3.05583 3.15v-.0083c-.325.325-.85.3333-1.18334.0166-.16666-.1583-.25833-.375-.25833-.6v-3.38l-.00833-.0083c-.04167-.025-.075-.0417-.11667-.0667-1.45-.9166-2.39167-2.3833-2.39167-4.04165 0-2.76167 2.61167-5 5.83334-5 3.21662 0 5.83332 2.23833 5.83332 5 0 2.26665-1.775 4.18335-4.18832 4.79165v-.0083c-.16667.0333-.33334.075-.49167.1z"/></g></svg>