<?xml version="1.0" encoding="UTF-8"?>
<svg width="1200pt" height="1200pt" version="1.1" viewBox="0 0 1200 1200" xmlns="http://www.w3.org/2000/svg">
 <g fill="#fff">
  <path d="m92.398 1107.6c4.8008 4.8008 10.801 7.1992 16.801 7.1992s12-2.3984 16.801-7.1992l514.8-514.8-14.398 205.2c-1.1992 13.199 8.3984 25.199 22.801 25.199h1.1992c12 0 22.801-9.6016 24-22.801l19.199-268.8v-1.1992-3.6016-2.3984c0-1.1992 0-2.3984-1.1992-3.6016v-1.1992c0-1.1992-1.1992-2.3984-1.1992-3.6016v-1.1992l-7.2031-7.2031c-1.1992-1.1992-2.3984-1.1992-3.6016-2.3984h-1.1992c-1.1992 0-2.3984-1.1992-3.6016-1.1992h-1.1992-3.6016-1.1992l-268.8 19.199c-13.199 1.1992-22.801 12-22.801 25.199 1.1992 13.199 12 22.801 25.199 22.801l205.2-14.398-516 517.2c-9.5977 8.3984-9.5977 24 0 33.602z"/>
  <path d="m1028.4 973.2h-627.6c-13.199 0-24 10.801-24 24s10.801 24 24 24h627.6c48 0 86.398-38.398 86.398-86.398v-763.2c0-48-38.398-86.398-86.398-86.398l-763.2-0.003906c-48 0-86.398 38.398-86.398 86.398v627.6c0 13.199 10.801 24 24 24s24-10.801 24-24v-627.6c0-21.602 16.801-38.398 38.398-38.398h763.2c21.602 0 38.398 16.801 38.398 38.398v763.2c0.003906 21.598-17.996 38.398-38.398 38.398z"/>
 </g>
</svg>
