<svg fill="none" height="302" viewBox="0 0 387 302" width="387" xmlns="http://www.w3.org/2000/svg" xmlns:xlink="http://www.w3.org/1999/xlink"><filter id="a" color-interpolation-filters="sRGB" filterUnits="userSpaceOnUse" height="642.456" width="395.412" x="102.518" y="-304.49"><feFlood flood-opacity="0" result="BackgroundImageFix"/><feColorMatrix in="SourceAlpha" result="hardAlpha" type="matrix" values="0 0 0 0 0 0 0 0 0 0 0 0 0 0 0 0 0 0 127 0"/><feOffset dy="34.9922"/><feGaussianBlur stdDeviation="40.241"/><feColorMatrix type="matrix" values="0 0 0 0 0 0 0 0 0 0 0 0 0 0 0 0 0 0 0.15 0"/><feBlend in2="BackgroundImageFix" mode="normal" result="effect1_dropShadow_540_171"/><feBlend in="SourceGraphic" in2="effect1_dropShadow_540_171" mode="normal" result="shape"/></filter><filter id="b" color-interpolation-filters="sRGB" filterUnits="userSpaceOnUse" height="481.492" width="234.448" x="183" y="-259"><feFlood flood-opacity="0" result="BackgroundImageFix"/><feBlend in="SourceGraphic" in2="BackgroundImageFix" mode="normal" result="shape"/><feColorMatrix in="SourceAlpha" result="hardAlpha" type="matrix" values="0 0 0 0 0 0 0 0 0 0 0 0 0 0 0 0 0 0 127 0"/><feOffset/><feGaussianBlur stdDeviation="2.79938"/><feComposite in2="hardAlpha" k2="-1" k3="1" operator="arithmetic"/><feColorMatrix type="matrix" values="0 0 0 0 1 0 0 0 0 1 0 0 0 0 1 0 0 0 1 0"/><feBlend in2="shape" mode="normal" result="effect1_innerShadow_540_171"/></filter><filter id="c" color-interpolation-filters="sRGB" filterUnits="userSpaceOnUse" height="482.192" width="234.448" x="183" y="-259"><feFlood flood-opacity="0" result="BackgroundImageFix"/><feBlend in="SourceGraphic" in2="BackgroundImageFix" mode="normal" result="shape"/><feColorMatrix in="SourceAlpha" result="hardAlpha" type="matrix" values="0 0 0 0 0 0 0 0 0 0 0 0 0 0 0 0 0 0 127 0"/><feOffset dy=".699844"/><feGaussianBlur stdDeviation="1.04977"/><feComposite in2="hardAlpha" k2="-1" k3="1" operator="arithmetic"/><feColorMatrix type="matrix" values="0 0 0 0 1 0 0 0 0 1 0 0 0 0 1 0 0 0 0.5 0"/><feBlend in2="shape" mode="normal" result="effect1_innerShadow_540_171"/></filter><filter id="d" color-interpolation-filters="sRGB" filterUnits="userSpaceOnUse" height="482.192" width="234.448" x="183" y="-259"><feFlood flood-opacity="0" result="BackgroundImageFix"/><feBlend in="SourceGraphic" in2="BackgroundImageFix" mode="normal" result="shape"/><feColorMatrix in="SourceAlpha" result="hardAlpha" type="matrix" values="0 0 0 0 0 0 0 0 0 0 0 0 0 0 0 0 0 0 127 0"/><feOffset dy=".699844"/><feGaussianBlur stdDeviation="1.04977"/><feComposite in2="hardAlpha" k2="-1" k3="1" operator="arithmetic"/><feColorMatrix type="matrix" values="0 0 0 0 1 0 0 0 0 1 0 0 0 0 1 0 0 0 0.5 0"/><feBlend in2="shape" mode="normal" result="effect1_innerShadow_540_171"/></filter><filter id="e" color-interpolation-filters="sRGB" filterUnits="userSpaceOnUse" height="642.456" width="395.412" x="-173.482" y="34.5101"><feFlood flood-opacity="0" result="BackgroundImageFix"/><feColorMatrix in="SourceAlpha" result="hardAlpha" type="matrix" values="0 0 0 0 0 0 0 0 0 0 0 0 0 0 0 0 0 0 127 0"/><feOffset dy="34.9922"/><feGaussianBlur stdDeviation="40.241"/><feColorMatrix type="matrix" values="0 0 0 0 0 0 0 0 0 0 0 0 0 0 0 0 0 0 0.15 0"/><feBlend in2="BackgroundImageFix" mode="normal" result="effect1_dropShadow_540_171"/><feBlend in="SourceGraphic" in2="effect1_dropShadow_540_171" mode="normal" result="shape"/></filter><filter id="f" color-interpolation-filters="sRGB" filterUnits="userSpaceOnUse" height="481.492" width="234.448" x="-93" y="80"><feFlood flood-opacity="0" result="BackgroundImageFix"/><feBlend in="SourceGraphic" in2="BackgroundImageFix" mode="normal" result="shape"/><feColorMatrix in="SourceAlpha" result="hardAlpha" type="matrix" values="0 0 0 0 0 0 0 0 0 0 0 0 0 0 0 0 0 0 127 0"/><feOffset/><feGaussianBlur stdDeviation="2.79938"/><feComposite in2="hardAlpha" k2="-1" k3="1" operator="arithmetic"/><feColorMatrix type="matrix" values="0 0 0 0 1 0 0 0 0 1 0 0 0 0 1 0 0 0 1 0"/><feBlend in2="shape" mode="normal" result="effect1_innerShadow_540_171"/></filter><filter id="g" color-interpolation-filters="sRGB" filterUnits="userSpaceOnUse" height="482.192" width="234.448" x="-93" y="80"><feFlood flood-opacity="0" result="BackgroundImageFix"/><feBlend in="SourceGraphic" in2="BackgroundImageFix" mode="normal" result="shape"/><feColorMatrix in="SourceAlpha" result="hardAlpha" type="matrix" values="0 0 0 0 0 0 0 0 0 0 0 0 0 0 0 0 0 0 127 0"/><feOffset dy=".699844"/><feGaussianBlur stdDeviation="1.04977"/><feComposite in2="hardAlpha" k2="-1" k3="1" operator="arithmetic"/><feColorMatrix type="matrix" values="0 0 0 0 1 0 0 0 0 1 0 0 0 0 1 0 0 0 0.5 0"/><feBlend in2="shape" mode="normal" result="effect1_innerShadow_540_171"/></filter><filter id="h" color-interpolation-filters="sRGB" filterUnits="userSpaceOnUse" height="482.192" width="234.448" x="-93" y="80"><feFlood flood-opacity="0" result="BackgroundImageFix"/><feBlend in="SourceGraphic" in2="BackgroundImageFix" mode="normal" result="shape"/><feColorMatrix in="SourceAlpha" result="hardAlpha" type="matrix" values="0 0 0 0 0 0 0 0 0 0 0 0 0 0 0 0 0 0 127 0"/><feOffset dy=".699844"/><feGaussianBlur stdDeviation="1.04977"/><feComposite in2="hardAlpha" k2="-1" k3="1" operator="arithmetic"/><feColorMatrix type="matrix" values="0 0 0 0 1 0 0 0 0 1 0 0 0 0 1 0 0 0 0.5 0"/><feBlend in2="shape" mode="normal" result="effect1_innerShadow_540_171"/></filter><linearGradient id="i"><stop offset="0" stop-color="#f6d365"/><stop offset="1" stop-color="#ff7952"/></linearGradient><linearGradient id="j" gradientUnits="userSpaceOnUse" x1="283.202" x2="286.383" xlink:href="#i" y1="73.4916" y2="96.0999"/><linearGradient id="k" gradientUnits="userSpaceOnUse" x1="-.798294" x2="2.38317" xlink:href="#i" y1="225.492" y2="248.1"/><clipPath id="l"><path d="m0 0h387v302h-387z"/></clipPath><mask id="m" height="460" maskUnits="userSpaceOnUse" width="213" x="194" y="-248"><path clip-rule="evenodd" d="m217.948-247.801c-13.117 0-23.75 10.632-23.75 23.747v411.604c0 13.115 10.633 23.747 23.75 23.747h164.553c13.116 0 23.749-10.632 23.749-23.747v-411.604c0-13.115-10.633-23.747-23.749-23.747h-35.673c-2.214 0-2.78 1.412-2.78 3.595 0 6.914-1.696 13.65-11.955 13.65h-63.737c-10.26 0-11.956-6.736-11.956-13.65 0-2.183-.566-3.595-2.78-3.595z" fill="#fff" fill-rule="evenodd"/></mask><mask id="n" height="460" maskUnits="userSpaceOnUse" width="213" x="-82" y="91"><path clip-rule="evenodd" d="m-58.0523 91.1992c-13.1168 0-23.7499 10.6318-23.7499 23.7468v411.604c0 13.115 10.6331 23.747 23.7499 23.747h164.5533c13.116 0 23.749-10.632 23.749-23.747v-411.604c0-13.115-10.633-23.7468-23.749-23.7468h-35.6726c-2.2145 0-2.78 1.4116-2.78 3.5943 0 6.9145-1.6964 13.6505-11.9557 13.6505h-63.73703c-10.25927 0-11.95567-6.736-11.95567-13.6505 0-2.1827-.5655-3.5943-2.78-3.5943z" fill="#fff" fill-rule="evenodd"/></mask><g clip-path="url(#l)"><path d="m0 0h387v302h-387z" fill="#fff"/><g filter="url(#a)"><g filter="url(#b)"><g filter="url(#c)"><rect fill="#f5f5f5" fill-opacity=".8" height="481.493" rx="33.5925" width="234.448" x="183" y="-259"/></g><g filter="url(#d)" opacity=".5"><rect fill="#f5f5f5" fill-opacity=".8" height="481.493" rx="33.5925" width="234.448" x="183" y="-259"/></g></g><g mask="url(#m)"><rect fill="#fff" height="459.098" rx="2.79938" width="212.053" x="194.197" y="-247.801"/><g clip-rule="evenodd" fill-rule="evenodd"><path d="m313.937 107.771c0-1.88 1.523-3.404 3.403-3.404h71.017c1.88 0 3.403 1.524 3.403 3.404v36.842c0 1.879-1.523 3.403-3.403 3.403h-71.017c-1.88 0-3.403-1.524-3.403-3.403z" fill="#111213" fill-opacity=".1"/><path d="m225.001 107.771c0-1.88 1.524-3.404 3.404-3.404h71.017c1.879 0 3.403 1.524 3.403 3.404v36.842c0 1.879-1.524 3.403-3.403 3.403h-71.017c-1.88 0-3.404-1.524-3.404-3.403z" fill="#111213" fill-opacity=".1"/><path d="m259.907 77.1364c0-2.8195 2.286-5.1052 5.106-5.1052h86.787c2.819 0 5.105 2.2857 5.105 5.1052v9.1892c0 2.8194-2.286 5.1051-5.105 5.1051h-86.787c-2.82 0-5.106-2.2856-5.106-5.1051z" fill="url(#j)"/><path d="m292.24 80.1133h32.332v3.2332h-32.332z" fill="#fff"/><path d="m279.298 55.8672h58.198v3.2332h-58.198z" fill="#111213" fill-opacity=".1"/><path d="m259.888 49.4023h96.997v3.2333h-96.997z" fill="#111213" fill-opacity=".1"/><path d="m285.758 30h45.265v9.6997h-45.265z" fill="#111213" fill-opacity=".1"/></g></g></g><g filter="url(#e)"><g filter="url(#f)"><g filter="url(#g)"><rect fill="#f5f5f5" fill-opacity=".8" height="481.493" rx="33.5925" width="234.448" x="-93" y="80"/></g><g filter="url(#h)" opacity=".5"><rect fill="#f5f5f5" fill-opacity=".8" height="481.493" rx="33.5925" width="234.448" x="-93" y="80"/></g><path d="m4.2832 84.1992h39.8911v2.0996c0 1.1595-.94 2.0995-2.0995 2.0995h-35.69206c-1.15954 0-2.09954-.94-2.09954-2.0995z" fill="#dfdfdf"/></g><g mask="url(#n)"><rect fill="#fff" height="459.098" rx="2.79938" width="212.053" x="-81.8035" y="91.1992"/><g clip-rule="evenodd" fill-rule="evenodd"><path d="m29.9365 259.771c0-1.88 1.5238-3.404 3.4034-3.404h71.0171c1.88 0 3.403 1.524 3.403 3.404v36.842c0 1.879-1.523 3.403-3.403 3.403h-71.0171c-1.8796 0-3.4034-1.524-3.4034-3.403z" fill="#111213" fill-opacity=".1"/><path d="m-58.9988 259.771c0-1.88 1.5238-3.404 3.4034-3.404h71.0171c1.8796 0 3.4034 1.524 3.4034 3.404v36.842c0 1.879-1.5238 3.403-3.4034 3.403h-71.0171c-1.8796 0-3.4034-1.524-3.4034-3.403z" fill="#111213" fill-opacity=".1"/><path d="m-24.0925 229.136c0-2.819 2.2856-5.105 5.1051-5.105h86.787c2.8195 0 5.1051 2.286 5.1051 5.105v9.19c0 2.819-2.2856 5.105-5.1051 5.105h-86.787c-2.8195 0-5.1051-2.286-5.1051-5.105z" fill="url(#k)"/><path d="m8.23999 232.113h32.33241v3.234h-32.33241z" fill="#fff"/><path d="m-4.70215 207.867h58.19835v3.233h-58.19835z" fill="#111213" fill-opacity=".1"/><path d="m-24.1121 201.402h96.9973v3.234h-96.9973z" fill="#111213" fill-opacity=".1"/><path d="m1.75757 182h45.26533v9.7h-45.26533z" fill="#111213" fill-opacity=".1"/></g></g></g></g></svg>