<svg fill="none" height="302" viewBox="0 0 387 302" width="387" xmlns="http://www.w3.org/2000/svg" xmlns:xlink="http://www.w3.org/1999/xlink"><filter id="a" color-interpolation-filters="sRGB" filterUnits="userSpaceOnUse" height="642.456" width="395.412" x="-4.48205" y="-1.48985"><feFlood flood-opacity="0" result="BackgroundImageFix"/><feColorMatrix in="SourceAlpha" result="hardAlpha" type="matrix" values="0 0 0 0 0 0 0 0 0 0 0 0 0 0 0 0 0 0 127 0"/><feOffset dy="34.9922"/><feGaussianBlur stdDeviation="40.241"/><feColorMatrix type="matrix" values="0 0 0 0 0 0 0 0 0 0 0 0 0 0 0 0 0 0 0.15 0"/><feBlend in2="BackgroundImageFix" mode="normal" result="effect1_dropShadow_540_147"/><feBlend in="SourceGraphic" in2="effect1_dropShadow_540_147" mode="normal" result="shape"/></filter><filter id="b" color-interpolation-filters="sRGB" filterUnits="userSpaceOnUse" height="481.492" width="234.448" x="76" y="44"><feFlood flood-opacity="0" result="BackgroundImageFix"/><feBlend in="SourceGraphic" in2="BackgroundImageFix" mode="normal" result="shape"/><feColorMatrix in="SourceAlpha" result="hardAlpha" type="matrix" values="0 0 0 0 0 0 0 0 0 0 0 0 0 0 0 0 0 0 127 0"/><feOffset/><feGaussianBlur stdDeviation="2.79938"/><feComposite in2="hardAlpha" k2="-1" k3="1" operator="arithmetic"/><feColorMatrix type="matrix" values="0 0 0 0 1 0 0 0 0 1 0 0 0 0 1 0 0 0 1 0"/><feBlend in2="shape" mode="normal" result="effect1_innerShadow_540_147"/></filter><filter id="c" color-interpolation-filters="sRGB" filterUnits="userSpaceOnUse" height="482.192" width="234.448" x="76" y="44"><feFlood flood-opacity="0" result="BackgroundImageFix"/><feBlend in="SourceGraphic" in2="BackgroundImageFix" mode="normal" result="shape"/><feColorMatrix in="SourceAlpha" result="hardAlpha" type="matrix" values="0 0 0 0 0 0 0 0 0 0 0 0 0 0 0 0 0 0 127 0"/><feOffset dy=".699844"/><feGaussianBlur stdDeviation="1.04977"/><feComposite in2="hardAlpha" k2="-1" k3="1" operator="arithmetic"/><feColorMatrix type="matrix" values="0 0 0 0 1 0 0 0 0 1 0 0 0 0 1 0 0 0 0.5 0"/><feBlend in2="shape" mode="normal" result="effect1_innerShadow_540_147"/></filter><filter id="d" color-interpolation-filters="sRGB" filterUnits="userSpaceOnUse" height="482.192" width="234.448" x="76" y="44"><feFlood flood-opacity="0" result="BackgroundImageFix"/><feBlend in="SourceGraphic" in2="BackgroundImageFix" mode="normal" result="shape"/><feColorMatrix in="SourceAlpha" result="hardAlpha" type="matrix" values="0 0 0 0 0 0 0 0 0 0 0 0 0 0 0 0 0 0 127 0"/><feOffset dy=".699844"/><feGaussianBlur stdDeviation="1.04977"/><feComposite in2="hardAlpha" k2="-1" k3="1" operator="arithmetic"/><feColorMatrix type="matrix" values="0 0 0 0 1 0 0 0 0 1 0 0 0 0 1 0 0 0 0.5 0"/><feBlend in2="shape" mode="normal" result="effect1_innerShadow_540_147"/></filter><linearGradient id="e" gradientUnits="userSpaceOnUse" x1="225.381" x2="223.272" y1="196.963" y2="173.859"><stop offset="0" stop-color="#66a6ff"/><stop offset="1" stop-color="#89f7fe"/></linearGradient><clipPath id="f"><path d="m0 0h387v302h-387z"/></clipPath><mask id="g" height="460" maskUnits="userSpaceOnUse" width="213" x="87" y="55"><path clip-rule="evenodd" d="m110.948 55.1992c-13.1171 0-23.7502 10.6317-23.7502 23.7464v411.6044c0 13.115 10.6331 23.747 23.7502 23.747h164.553c13.116 0 23.749-10.632 23.749-23.747v-411.6044c0-13.1147-10.633-23.7464-23.749-23.7464h-35.673c-2.214 0-2.78 1.4116-2.78 3.5943 0 6.9143-1.696 13.6502-11.955 13.6502h-63.737c-10.26 0-11.956-6.7359-11.956-13.6502 0-2.1827-.566-3.5943-2.78-3.5943z" fill="#fff" fill-rule="evenodd"/></mask><g clip-path="url(#f)"><path d="m0 0h387v302h-387z" fill="#fff"/><g filter="url(#a)"><g filter="url(#b)"><g filter="url(#c)"><rect fill="#f5f5f5" fill-opacity=".8" height="481.493" rx="33.5925" width="234.448" x="76" y="44"/></g><g filter="url(#d)" opacity=".5"><rect fill="#f5f5f5" fill-opacity=".8" height="481.493" rx="33.5925" width="234.448" x="76" y="44"/></g><g fill="#dfdfdf"><circle cx="162.784" cy="61.4947" r="2.79938"/><path d="m173.283 48.1992h39.891v2.0996c0 1.1595-.94 2.0995-2.099 2.0995h-35.692c-1.16 0-2.1-.94-2.1-2.0995z"/></g></g><g mask="url(#g)"><rect fill="#fff" height="459.098" rx="2.79938" width="212.053" x="87.1965" y="55.1992"/><g clip-rule="evenodd" fill-rule="evenodd"><path d="m124.066 217.823c0-1.665 1.349-3.014 3.014-3.014h132.292c1.665 0 3.015 1.349 3.015 3.014v13.16c0 1.665-1.35 3.015-3.015 3.015h-132.292c-1.665 0-3.014-1.35-3.014-3.015z" fill="#111213" fill-opacity=".1"/><path d="m124.066 207.934h49.172v3.278h-49.172z" fill="#111213" fill-opacity=".1"/><path d="m124.066 181.842c0-1.664 1.349-3.014 3.014-3.014h132.292c1.665 0 3.015 1.35 3.015 3.014v13.161c0 1.665-1.35 3.014-3.015 3.014h-132.292c-1.665 0-3.014-1.349-3.014-3.014z" fill="url(#e)"/><path d="m124.066 171.875h32.781v3.278h-32.781z" fill="#111213" fill-opacity=".1"/><path d="m163.727 155.48h59.006v3.279h-59.006z" fill="#111213" fill-opacity=".1"/><path d="m144.055 148.922h98.344v3.278h-98.344z" fill="#111213" fill-opacity=".1"/><path d="m170.271 129.258h45.893v9.834h-45.893z" fill="#111213" fill-opacity=".1"/></g></g></g></g></svg>