
<svg xmlns="http://www.w3.org/2000/svg" version="1.1" xmlns:xlink="http://www.w3.org/1999/xlink" preserveAspectRatio="none" x="0px" y="0px" width="335px" height="688px" viewBox="0 0 335 688">
<defs>
<linearGradient id="Gradient_1" gradientUnits="userSpaceOnUse" x1="89.33749999999999" y1="362.425" x2="239.5625" y2="217.97499999999997" spreadMethod="pad">
<stop  offset="0%" stop-color="#38D7CD"/>

<stop  offset="100%" stop-color="#29FB96"/>
</linearGradient>

<filter id="Filter_1" x="-20%" y="-20%" width="140%" height="140%" color-interpolation-filters="sRGB">
<feColorMatrix in="SourceGraphic" type="matrix" values="1 0 0 0 0 0 1 0 0 0 0 0 1 0 0 0 0 0 0.5 0" result="result1"/>
</filter>
</defs>

<g id="Layer_1">
<g>
<g>
<g>
<path fill="#F5F5F5" fill-opacity="0.8" stroke="none" d="
M 0 0
L 0 688 335 688 335 0 0 0 Z"/>
</g>
</g>
</g>

<g id="Layer_1">
<g>
<g filter="url(#Filter_1)">
<g>
<path fill="#F5F5F5" fill-opacity="0.8" stroke="none" d="
M 0 0
L 0 688 335 688 335 0 0 0 Z"/>
</g>
</g>
</g>
</g>

<g>
<g>
<g>
<path fill="#DFDFDF" stroke="none" d="
M 124 29
Q 125.65 29 126.85 27.85 128 26.7 128 25 128 23.35 126.85 22.2 125.65 21 124 21 122.3 21 121.15 22.2 120 23.35 120 25 120 26.7 121.15 27.85 122.3 29 124 29 Z"/>
</g>
</g>
</g>

<g>
<g>
<g>
<path fill="#DFDFDF" stroke="none" d="
M 193 12
Q 194.25 12 195.1 11.15 196 10.25 196 9
L 196 6 139 6 139 9
Q 139 10.3 139.85 11.15 140.75 12 142 12
L 193 12 Z"/>
</g>
</g>
</g>

<g>
<g>
<g>
<path fill="#FFFFFF" stroke="none" d="
M 319 20
Q 319 18.35 317.85 17.2 316.65 16 315 16
L 20 16
Q 18.3 16 17.15 17.2 16 18.35 16 20
L 16 668
Q 16 669.7 17.15 670.85 18.3 672 20 672
L 315 672
Q 316.65 672 317.85 670.85 319 669.7 319 668
L 319 20 Z"/>
</g>
</g>
</g>

<g>
<g>
<g>
<path fill="#111213" fill-opacity="0.09803921568627451" stroke="none" d="
M 217.75 563.65
L 217.75 556.3 56.3 556.3 56.3 563.6 217.75 563.65 Z"/>
</g>
</g>
</g>

<g>
<g>
<g>
<path fill="#111213" fill-opacity="0.09803921568627451" stroke="none" d="
M 276.5 548.95
L 276.5 541.6 56.3 541.6 56.3 548.95 276.5 548.95 Z"/>
</g>
</g>
</g>

<g>
<g>
<g>
<path fill="#111213" fill-opacity="0.09803921568627451" stroke="none" d="
M 276.5 534.25
L 276.5 526.95 56.3 526.9 56.3 534.25 276.5 534.25 Z"/>
</g>
</g>
</g>

<g>
<g>
<g>
<path fill="#111213" fill-opacity="0.09803921568627451" stroke="none" d="
M 276.5 519.6
L 276.5 512.25 56.3 512.25 56.3 519.6 276.5 519.6 Z"/>
</g>
</g>
</g>

<g>
<g>
<g>
<path fill="#111213" fill-opacity="0.09803921568627451" stroke="none" d="
M 276.5 504.9
L 276.5 497.55 56.3 497.55 56.3 504.9 276.5 504.9 Z"/>
</g>
</g>
</g>

<g>
<g>
<g>
<path fill="#111213" fill-opacity="0.09803921568627451" stroke="none" d="
M 276.5 490.25
L 276.5 482.9 56.3 482.9 56.3 490.2 276.5 490.25 Z"/>
</g>
</g>
</g>

<g>
<g>
<g>
<path fill="#111213" fill-opacity="0.09803921568627451" stroke="none" d="
M 276.5 475.55
L 276.5 468.2 56.3 468.2 56.3 475.55 276.5 475.55 Z"/>
</g>
</g>
</g>

<g>
<g>
<g>
<path fill="#111213" fill-opacity="0.09803921568627451" stroke="none" d="
M 276.5 460.9
L 276.5 453.55 56.3 453.55 56.3 460.85 276.5 460.9 Z"/>
</g>
</g>
</g>

<g>
<g>
<g>
<path fill="#111213" fill-opacity="0.09803921568627451" stroke="none" d="
M 276.5 446.2
L 276.5 438.85 56.3 438.85 56.3 446.2 276.5 446.2 Z"/>
</g>
</g>
</g>

<g>
<g>
<g>
<path fill="#111213" fill-opacity="0.09803921568627451" stroke="none" d="
M 265.5 394.8
L 67.3 394.8
Q 62.75 394.8 59.55 398.05 56.3 401.25 56.3 405.8 56.3 410.35 59.55 413.6 62.75 416.85 67.3 416.85
L 265.5 416.85
Q 270.05 416.85 273.25 413.6 276.5 410.4 276.5 405.85 276.5 401.3 273.25 398.05 270.05 394.8 265.5 394.8 Z"/>
</g>
</g>
</g>

<g>
<g>
<g>
<path fill="#111213" fill-opacity="0.09803921568627451" stroke="none" d="
M 56.3 365.45
L 56.3 372.8 159.05 372.8 159.05 365.45 56.3 365.45 Z"/>
</g>
</g>
</g>

<g>
<g>
<g>
<path fill="url(#Gradient_1)" stroke="none" d="
M 71.3 240.7
Q 65.1 240.7 60.7 245.1 56.3 249.5 56.3 255.7
L 56.3 328.45
Q 56.3 334.65 60.7 339.05 65.1 343.45 71.3 343.45
L 261.5 343.45
Q 267.75 343.45 272.1 339.05 276.5 334.7 276.5 328.45
L 276.5 255.7
Q 276.5 249.5 272.1 245.1 267.75 240.7 261.5 240.7
L 71.3 240.7 Z"/>
</g>
</g>
</g>

<g>
<g>
<g>
<path fill="#111213" fill-opacity="0.09803921568627451" stroke="none" d="
M 188.75 123.25
Q 182.55 123.25 178.15 127.65 173.75 132.05 173.75 138.25
L 173.75 211
Q 173.75 217.25 178.15 221.6 182.55 226 188.75 226
L 261.5 226
Q 267.75 226 272.1 221.6 276.5 217.25 276.5 211
L 276.5 138.25
Q 276.5 132.05 272.1 127.65 267.7 123.25 261.5 123.25
L 188.75 123.25 Z"/>
</g>
</g>
</g>

<g>
<g>
<g>
<path fill="#111213" fill-opacity="0.09803921568627451" stroke="none" d="
M 71.35 123.25
Q 65.15 123.25 60.75 127.65 56.35 132.05 56.35 138.25
L 56.3 211
Q 56.3 217.2 60.7 221.6 65.1 226 71.3 226
L 144.05 226
Q 150.3 226 154.65 221.6 159.05 217.25 159.05 211
L 159.1 138.25
Q 159.1 132.05 154.7 127.65 150.3 123.25 144.1 123.25
L 71.35 123.25 Z"/>
</g>
</g>
</g>
</g>

<g id="Layer_1">
<g>
<g>
<g>
<path fill="#FFFFFF" fill-opacity="0.8" stroke="none" d="
M 175.55 270.9
Q 176.8 272.15 178.6 272.15 180.35 272.15 181.6 270.9 182.85 269.6 182.85 267.85 182.85 266.05 181.6 264.8 180.35 263.55 178.6 263.55 176.8 263.55 175.55 264.8 174.3 266.05 174.3 267.85 174.3 269.6 175.55 270.9
M 152.45 277.5
Q 152.45 274.55 150.35 272.4 148.25 270.3 145.25 270.3
L 145.25 293.45
Q 145.25 297.2 146.7 300.7 148.15 304 150.7 306.6 153.3 309.2 156.65 310.6 160.1 312.05 163.9 312.05 167.7 312.05 171.15 310.6 174.5 309.2 177.05 306.6 179.65 304 181.05 300.7 182.5 297.2 182.5 293.45 182.5 289.65 181.05 286.15 179.65 282.85 177.05 280.25 174.5 277.65 171.15 276.25 167.7 274.8 163.9 274.8 160.7 274.8 157.75 275.85 154.9 276.85 152.45 278.7
L 152.45 277.5
M 153.35 289
Q 154.25 286.95 155.8 285.35 157.4 283.75 159.45 282.9 161.55 282 163.9 282 166.2 282 168.35 282.9 170.4 283.75 171.95 285.35 173.55 286.95 174.4 289 175.3 291.1 175.3 293.45 175.3 295.75 174.4 297.85 173.55 299.9 171.95 301.5 170.4 303.1 168.35 303.95 166.2 304.85 163.9 304.85 161.55 304.85 159.45 303.95 157.4 303.1 155.8 301.5 154.25 299.9 153.35 297.85 152.45 295.75 152.45 293.45 152.45 291.1 153.35 289
M 138.95 294.8
L 138.95 264.85
Q 138.95 263.05 138.3 261.45 137.6 259.85 136.4 258.65 135.2 257.45 133.6 256.8 132 256.1 130.2 256.1
L 130.2 294.8
Q 130.2 301.65 132.85 307.9 135.4 313.95 140.1 318.6 144.75 323.25 150.8 325.85 157.05 328.45 163.9 328.45 170.75 328.45 177 325.85 183.05 323.25 187.7 318.6 192.4 313.95 194.95 307.9 197.6 301.65 197.6 294.8
L 197.6 256.1
Q 195.8 256.1 194.15 256.8 192.6 257.45 191.4 258.65 190.2 259.85 189.5 261.45 188.85 263.05 188.85 264.85
L 188.85 294.8
Q 188.85 299.85 186.9 304.5 185 308.95 181.55 312.4 178.1 315.85 173.6 317.75 168.95 319.75 163.9 319.75 158.8 319.75 154.2 317.75 149.7 315.85 146.25 312.4 142.8 308.95 140.95 304.5 138.95 299.85 138.95 294.8 Z"/>
</g>
</g>
</g>
</g>
</svg>
